<?xml version="1.0" encoding="UTF-8"?>
<svg id="Layer_2" data-name="Layer 2" xmlns="http://www.w3.org/2000/svg" viewBox="0 0 450.5 213.7">
  <defs>
    <style>
      .cls-1 {
        fill: #fff;
      }

      .cls-2 {
        isolation: isolate;
      }
    </style>
  </defs>
  <g id="Layer_1-2" data-name="Layer 1">
    <g>
      <path class="cls-1" d="M46.6,144.8c.1,3.4-.8,6.7-2.6,9.6-1.8,2.8-4.1,5.3-6.9,7.2v.1c-2.2,1.5-4.7,2.6-7.4,3.2-2.6,.6-5.3,1-8,1-4,0-8-.8-11.7-2.4-3.7-1.7-7.1-3.9-10-6.7l4.4-7.1c2.5,2.1,5.2,3.8,8.1,5.2s6,2.2,9.3,2.2c1.7,0,3.4-.2,5-.7,1.6-.4,3-1.1,4.4-2,1.3-.9,2.4-2.1,3.2-3.4,.8-1.5,1.3-3.2,1.2-4.9,.1-2.3-.8-4.6-2.5-6.2-1.9-1.6-4-2.8-6.3-3.7-2.5-1-5.2-1.9-8.1-2.8-2.8-.8-5.6-2-8.1-3.4s-4.6-3.3-6.3-5.6c-1.7-2.3-2.5-5.4-2.5-9.3,0-6,1.8-10.6,5.3-13.8,3.6-3.2,8.2-4.8,14.1-4.8h20.1l1.9,14.8-.9,.5c-1.8-2.7-4.4-4.9-7.3-6.2-3-1.3-6.2-1.9-9.4-1.9-1.6,0-3.2,.2-4.7,.5-1.5,.3-2.9,.9-4.1,1.6s-2.3,1.8-3,3c-.8,1.4-1.2,3.1-1.1,4.7-.1,2.1,.8,4.1,2.5,5.3,1.9,1.4,4.1,2.5,6.3,3.3,2.5,.9,5.3,1.8,8.2,2.7,2.9,.8,5.6,2.1,8.2,3.7,2.5,1.6,4.7,3.7,6.3,6.2,1.6,2.5,2.4,5.9,2.4,10.1Z"/>
      <path class="cls-1" d="M121.6,158.2c.1,1.8-.4,3.6-1.5,5.1-1,1.3-2.7,2-5.1,2h-3.3v-50l-19.2,49.9h-8.5l-19.1-48v48h-13.1v-.8c1.7-.5,3.1-1.4,4.3-2.7,.9-1.5,1.3-3.2,1.2-4.9v-52.2c0-4-1.9-6.4-5.6-7.1v-1h15.1l23,53.5,20.9-53.6h10.8l.1,61.8Z"/>
      <path class="cls-1" d="M184.5,165h-18.8v-.8c1.4-.3,2.7-1,3.8-2s1.7-2.4,1.7-3.9c0-1-.2-2-.5-2.9-.3-1.2-.7-2.5-1.2-3.9s-.9-2.7-1.4-4-.9-2.3-1.1-3.1h-23.9l-8.1,22c-1.5-.1-2.9-.7-3.9-1.7-1.1-1-1.7-2.4-1.7-3.9,0-.5,.1-1.1,.2-1.6,.1-.5,.3-1,.5-1.5l22.9-61.3h8.8l22.7,68.6Zm-19.4-26.9l-9.4-27.7-10.2,27.7h19.6Z"/>
      <path class="cls-1" d="M225.8,103.8h-19.3v52.7c0,1.7,.4,3.3,1.2,4.7,.9,1.6,2.5,2.7,4.3,3v.8h-15.4v-61.2h-18.4v-7.5h47.7v7.5h-.1Z"/>
      <path class="cls-1" d="M276.3,115.4c0,2.5-.4,5.1-1.3,7.5-.9,2.2-2.2,4.2-3.8,5.9-1.7,1.7-3.7,3-5.9,3.9-2.4,1-4.9,1.4-7.5,1.4h-13.2v31h-2.9c-4.7,0-7-2.4-7-7.2v-53c.1-1.7-.4-3.4-1.3-4.8-1.1-1.4-2.6-2.3-4.3-2.6v-1.1h27.5c2.6,0,5.2,.5,7.6,1.4,2.3,.9,4.5,2.2,6.3,3.9,1.8,1.7,3.3,3.7,4.2,6,1.1,2.4,1.6,5,1.6,7.7Zm-9.8-.3c0-1.4-.3-2.9-.9-4.2-.6-1.3-1.4-2.5-2.4-3.5s-2.2-1.8-3.5-2.4-2.8-.9-4.2-.9h-10.9v22.3h10.8c3,.2,6-1,8.1-3.2,2.1-2.1,3.2-5.1,3-8.1Z"/>
      <path class="cls-1" d="M332.1,165h-11.9l-17.9-31h-6.2v31h-2.7c-2.7,0-4.5-.6-5.6-1.9s-1.6-3.2-1.6-5.8v-53.1c.1-1.6-.4-3.2-1.4-4.5s-2.5-2.1-4.1-2.3v-1h28.3c2.6,0,5.2,.5,7.7,1.4,2.3,.9,4.5,2.2,6.3,3.9,1.8,1.7,3.3,3.7,4.3,6,1,2.4,1.6,5,1.5,7.7,0,2.3-.4,4.7-1.1,6.9-.7,2-1.8,3.9-3.2,5.5-1.4,1.6-3,2.9-4.8,3.9-1.9,1-4,1.7-6.1,1.9l18.5,31.4Zm-13.1-49.8c0-1.4-.3-2.9-.9-4.2-.6-1.3-1.4-2.5-2.4-3.5s-2.2-1.8-3.4-2.4c-1.3-.6-2.7-.9-4.1-.9h-12v22.2c2,.1,4,.1,6,.1h6c3,.2,5.9-1,8-3.2,1.9-2.2,2.9-5.1,2.8-8.1Z"/>
      <path class="cls-1" d="M394.8,130.3c0,4.4-.7,8.7-1.9,12.9-1.2,4.1-3.1,8-5.6,11.5-2.5,3.4-5.6,6.2-9.3,8.2-3.9,2.2-8.3,3.2-12.8,3.2-4.4,.1-8.8-1-12.7-3.2-3.6-2.1-6.8-4.9-9.2-8.3-2.5-3.5-4.4-7.4-5.6-11.5-1.2-4.2-1.9-8.5-1.9-12.9s.7-8.6,1.9-12.7c1.2-4,3.2-7.8,5.7-11.1,2.5-3.2,5.7-5.9,9.3-7.9,3.9-2.1,8.2-3.1,12.5-3,4.4-.1,8.8,1,12.7,3,3.6,1.9,6.8,4.6,9.3,7.9,2.6,3.3,4.5,7.1,5.7,11.1,1.3,4.2,1.9,8.5,1.9,12.8Zm-11.1,0c0-2.9-.4-5.9-1-8.8-.7-3.1-1.8-6-3.3-8.7-1.4-2.6-3.4-4.9-5.8-6.7-2.4-1.8-5.4-2.8-8.4-2.7-3-.1-6,.9-8.3,2.7-2.3,1.9-4.3,4.2-5.7,6.8-1.5,2.7-2.6,5.7-3.3,8.8-.6,2.8-1,5.8-1,8.7,0,3.4,.4,6.8,1.2,10.1,1.3,4.7,3.5,9,6.7,12.6,.9,1.1,1.9,2,3,2.8s2.3,1.5,3.6,1.9c1.3,.5,2.7,.7,4.1,.7,3.1,.1,6-1,8.4-2.9,2.4-2,4.3-4.5,5.7-7.3,1.5-2.9,2.6-6,3.3-9.2,.4-2.9,.8-5.9,.8-8.8Z"/>
      <path class="cls-1" d="M447.1,115.4c0,2.5-.4,5.1-1.4,7.5-1.7,4.5-5.3,8.1-9.7,9.9-2.4,1-4.9,1.4-7.5,1.4h-13.2v31h-2.9c-4.7,0-7-2.4-7-7.2v-53c.1-1.7-.4-3.4-1.3-4.8-1.1-1.4-2.6-2.3-4.3-2.6v-1.1h27.5c2.6,0,5.2,.5,7.6,1.4,2.3,.9,4.5,2.2,6.3,3.9,1.8,1.7,3.2,3.7,4.2,6,1.2,2.3,1.7,4.9,1.7,7.6Zm-9.8-.3c0-1.4-.3-2.9-.9-4.2-.6-1.3-1.4-2.5-2.4-3.5s-2.2-1.8-3.5-2.4-2.8-.9-4.2-.9h-10.9v22.3h10.8c3,.2,6-1,8.1-3.2,2.1-2.1,3.2-5.1,3-8.1Z"/>
      <polygon class="cls-1" points="450.4 60.5 445.7 68.9 444.3 68.1 342.1 11 341.9 11.2 242.5 66.7 238.6 68.9 233.9 60.5 236.4 59 340.6 .8 341.9 .1 342.1 0 450.4 60.5"/>
      <rect class="cls-1" x="327.3" y="39.2" width="13.3" height="13.3"/>
      <rect class="cls-1" x="343.6" y="39.2" width="13.3" height="13.3"/>
      <rect class="cls-1" x="327.3" y="55.5" width="13.3" height="13.3"/>
      <rect class="cls-1" x="343.6" y="55.5" width="13.3" height="13.3"/>
    </g>
    <g>
      <g class="cls-2">
        <path class="cls-1" d="M1.5,207.6h.9c0,3.1,2.4,5.1,6,5.1,3.3,0,5.6-1.9,5.6-4.6,0-3.1-2.8-3.7-5.7-4.4-3.1-.7-6.3-1.4-6.3-5.1,0-3.2,2.5-5.2,6.3-5.2s6.2,2.2,6.2,5.5h-.9c0-2.8-2.1-4.6-5.2-4.6-3.3,0-5.4,1.7-5.4,4.3,0,3,2.8,3.6,5.7,4.2,3.1,.7,6.4,1.4,6.4,5.2,0,3.4-2.7,5.6-6.5,5.6-4.3,.1-7.1-2.3-7.1-6Z"/>
        <path class="cls-1" d="M40.6,213.4l-3.2-18-7.6,17.1h-.3l-7.5-17-3.2,18h-.9l3.5-19.7h.8l7.5,17.2,7.6-17.2h.8l3.5,19.7h-1s0-.1,0-.1Z"/>
        <path class="cls-1" d="M58.1,207.7h-10.9l-2.4,5.7h-1l8.4-19.7h.8l8.6,19.7h-1l-2.5-5.7Zm-10.5-.9h10.1l-5.1-11.8-5,11.8Z"/>
      </g>
      <g class="cls-2">
        <path class="cls-1" d="M73.3,204.8l5.2,8.6h-1.1l-5.1-8.6h-6.1v8.6h-.9v-19.7h7.2c3.5,0,6,2.3,6,5.6-.1,2.9-2.2,5.2-5.2,5.5Zm-7.1-.8h6.2c3,0,5.1-2,5.1-4.7s-2.1-4.7-5.1-4.7h-6.2v9.4Z"/>
      </g>
      <g class="cls-2">
        <path class="cls-1" d="M94.1,194.6h-6.4v18.9h-.9v-18.9h-6.4v-.9h13.8l-.1,.9h0Z"/>
      </g>
      <g class="cls-2">
        <path class="cls-1" d="M117.6,199.6c0,3.4-2.7,6-6.2,6h-5.7v7.9h-.9v-19.7h6.7c3.5-.1,6.1,2.4,6.1,5.8Zm-.9,0c0-2.9-2.3-5-5.3-5h-5.7v10.1h5.7c3,0,5.3-2.2,5.3-5.1Z"/>
        <path class="cls-1" d="M129.7,204.8l5.2,8.6h-1.1l-5.1-8.6h-6.1v8.6h-.9v-19.7h7.2c3.5,0,6,2.3,6,5.6,0,2.9-2.2,5.2-5.2,5.5Zm-7.1-.8h6.2c3,0,5.1-2,5.1-4.7s-2.1-4.7-5.1-4.7h-6.2s0,9.4,0,9.4Z"/>
        <path class="cls-1" d="M138.1,203.6c0-5.8,4.2-10.2,10.2-10.2s10.2,4.4,10.2,10.2-4.2,10.1-10.2,10.1-10.2-4.4-10.2-10.1Zm19.4,0c0-5.3-3.9-9.3-9.2-9.3s-9.2,4-9.2,9.3,3.9,9.2,9.2,9.2,9.2-4,9.2-9.2Z"/>
        <path class="cls-1" d="M175.9,199.6c0,3.4-2.7,6-6.2,6h-5.7v7.9h-.9v-19.7h6.7c3.4-.1,6.1,2.4,6.1,5.8Zm-.9,0c0-2.9-2.3-5-5.3-5h-5.7v10.1h5.7c3,0,5.3-2.2,5.3-5.1Z"/>
        <path class="cls-1" d="M190.9,212.5v.9h-10.9v-19.7h10.6v.9h-9.7v8.1h9v.9h-9v9l10-.1h0Z"/>
      </g>
      <g class="cls-2">
        <path class="cls-1" d="M203.2,204.8l5.2,8.6h-1.1l-5.1-8.6h-6.1v8.6h-.9v-19.7h7.2c3.5,0,6,2.3,6,5.6,0,2.9-2.1,5.2-5.2,5.5Zm-7-.8h6.2c3,0,5.1-2,5.1-4.7s-2.1-4.7-5.1-4.7h-6.2v9.4Z"/>
      </g>
      <g class="cls-2">
        <path class="cls-1" d="M224.1,194.6h-6.4v18.9h-.9v-18.9h-6.4v-.9h13.8v.9h-.1Z"/>
      </g>
      <g class="cls-2">
        <path class="cls-1" d="M234.2,205.6v7.8h-.9v-7.8l-7.5-12h1l7,11.1,7-11.1h1l-7.6,12Z"/>
      </g>
      <g class="cls-2">
        <path class="cls-1" d="M274,213.4l-3.2-18-7.6,17.1h-.3l-7.5-17.1-3.2,18h-.9l3.5-19.7h.8l7.5,17.2,7.6-17.2h.8l3.5,19.7h-1Z"/>
        <path class="cls-1" d="M291.4,207.7h-10.9l-2.4,5.7h-1l8.4-19.7h.8l8.6,19.7h-1l-2.5-5.7Zm-10.5-.9h10.1l-5.1-11.8-5,11.8Z"/>
        <path class="cls-1" d="M313.6,193.7v19.7h-.8l-13.2-18.1v18.1h-.9v-19.7h.8l13.2,18.1v-18.1h.9Z"/>
      </g>
      <g class="cls-2">
        <path class="cls-1" d="M331.6,207.7h-10.9l-2.4,5.7h-1l8.4-19.7h.8l8.6,19.7h-1l-2.5-5.7Zm-10.5-.9h10.1l-5.1-11.8-5,11.8Z"/>
      </g>
      <g class="cls-2">
        <path class="cls-1" d="M356.4,204.2c-.2,5.6-4.2,9.5-9.7,9.5-5.8,0-9.9-4.3-9.9-10.1s4.2-10.1,9.8-10.1c4.6,0,8.5,2.9,9.4,6.9h-.9c-.8-3.5-4.3-6-8.4-6-5.1,0-8.9,3.9-8.9,9.2s3.7,9.2,8.9,9.2c4.8,0,8.2-3.1,8.7-7.7h-9.7v-.9h10.7Z"/>
        <path class="cls-1" d="M371.8,212.5v.9h-10.9v-19.7h10.6v.9h-9.7v8.1h9v.9h-9v9l10-.1h0Z"/>
        <path class="cls-1" d="M397.3,213.4l-3.2-18-7.6,17.1h-.3l-7.5-17.1-3.2,18h-.9l3.5-19.7h.8l7.5,17.2,7.6-17.2h.8l3.5,19.7h-1Z"/>
        <path class="cls-1" d="M413.7,212.5v.9h-10.9v-19.7h10.6v.9h-9.7v8.1h9v.9h-9v9l10-.1h0Z"/>
        <path class="cls-1" d="M433,193.7v19.7h-.8l-13.2-18.1v18.1h-1v-19.7h.8l13.2,18.1v-18.1h1Z"/>
      </g>
      <g class="cls-2">
        <path class="cls-1" d="M450.4,194.6h-6.4v18.9h-.9v-18.9h-6.4v-.9h13.8v.9h-.1Z"/>
      </g>
    </g>
  </g>
</svg>